<svg xmlns="http://www.w3.org/2000/svg" xmlns:xlink="http://www.w3.org/1999/xlink" viewBox="0,0,255.99184,255.99184" width="48px" height="48px" fill-rule="none"><defs><linearGradient x1="13.501" y1="-2.439" x2="13.501" y2="38.778" gradientUnits="userSpaceOnUse" id="color-1"><stop offset="0" stop-color="#db7242"></stop><stop offset="1" stop-color="#bb4d0c"></stop></linearGradient><linearGradient x1="4.981" y1="3.065" x2="35.077" y2="33.161" gradientUnits="userSpaceOnUse" id="color-2"><stop offset="0" stop-color="#fd9d55"></stop><stop offset="1" stop-color="#fd8243"></stop></linearGradient></defs><g transform="translate(-30.71902,-30.71902) scale(1.24,1.24)"><g fill="none" fill-rule="none" stroke="none" stroke-width="1" stroke-linecap="butt" stroke-linejoin="miter" stroke-miterlimit="10" stroke-dasharray="" stroke-dashoffset="0" font-family="none" font-weight="none" font-size="none" text-anchor="none" style="mix-blend-mode: normal"><g transform="scale(5.33333,5.33333)"><path d="M9.001,40.995v-33.993c0,-1.105 0.899,-2.004 2.004,-2.004h2.997l4,20.001l-4,18h-2.997c-1.106,0 -2.004,-0.898 -2.004,-2.004z" fill="url(#color-1)" fill-rule="nonzero"></path><path d="M14.002,42.999v-38.001h22.996c1.105,0 2.004,0.899 2.004,2.004v33.993c0,1.105 -0.899,2.004 -2.004,2.004z" fill="url(#color-2)" fill-rule="nonzero"></path><path d="M18.002,10.001v2.999h10.999v-2.999z" fill="#bb420c" fill-rule="evenodd"></path><path d="M21.001,14.999v2.999h8.001v-2.999z" fill="#bb420c" fill-rule="evenodd"></path><path d="M34.002,4.999v16l-3.5,-3l-3.5,3v-16z" fill="#ffffff" fill-rule="evenodd"></path></g></g></g></svg>